<?xml version="1.0" standalone="no"?><svg xmlns="http://www.w3.org/2000/svg" viewBox="0 0 1440 320">
<g transform="translate(0,160) scale(1 0.5)">
  <path fill="rgb(255,236,238)" fill-opacity="1" d="M0,64L34.3,85.3C68.6,107,137,149,206,154.7C274.3,160,343,128,411,133.3C480,139,549,181,617,186.7C685.7,192,754,160,823,128C891.4,96,960,64,1029,58.7C1097.1,53,1166,75,1234,90.7C1302.9,107,1371,117,1406,122.7L1440,128L1440,320L1405.7,320C1371.4,320,1303,320,1234,320C1165.7,320,1097,320,1029,320C960,320,891,320,823,320C754.3,320,686,320,617,320C548.6,320,480,320,411,320C342.9,320,274,320,206,320C137.1,320,69,320,34,320L0,320Z"></path>
</g>
</svg>