<?xml version="1.0" standalone="no"?><svg xmlns="http://www.w3.org/2000/svg" viewBox="0 0 1440 320">
<g transform="translate(0 160) scale(1 0.5)">
<path fill="rgb(255,207,212)" fill-opacity="1" d="M0,192L34.3,197.3C68.6,203,137,213,206,224C274.3,235,343,245,411,256C480,267,549,277,617,261.3C685.7,245,754,203,823,192C891.4,181,960,203,1029,218.7C1097.1,235,1166,245,1234,229.3C1302.9,213,1371,171,1406,149.3L1440,128L1440,320L1405.7,320C1371.4,320,1303,320,1234,320C1165.7,320,1097,320,1029,320C960,320,891,320,823,320C754.3,320,686,320,617,320C548.6,320,480,320,411,320C342.9,320,274,320,206,320C137.1,320,69,320,34,320L0,320Z"></path>
</g></svg>